# xmcd
# Copyright (C) 1995-1998 Ti Kan
#
# Track frame offsets:
#       150
#       17884
#       33684
#       46082
#       65165
#
# Disc length: 1049 seconds
#
# Revision: 4
# Processed by: cddbd v1.5.2PL0 Copyright (c) Steve Scherf et al.
# Submitted via: CD-Import v1.0
#
DISCID=41041705
DTITLE=Roy Black - 
DYEAR=87
DGENRE=
TTITLE0=Hey Ya
TTITLE1=Maxwell's Silver Hammer
TTITLE2=Sunfun
TTITLE3=Küss' Di Hand, Schöne Frau
TTITLE4=Ganz In Weiss
EXTD=
EXTT0=
EXTT1=
EXTT2=
EXTT3=
EXTT4=
PLAYORDER=
